<mxfile host="app.diagrams.net" modified="2022-07-07T05:03:39.175Z" agent="5.0 (Windows NT 10.0; Win64; x64) AppleWebKit/537.36 (KHTML, like Gecko) Chrome/102.0.0.0 Safari/537.36" etag="rmHTXB4eOZcMwcN60oub" version="20.0.4" type="github">
  <diagram id="0Rd2zlKzjszA67ADvUel" name="Page-1">
    <mxGraphModel dx="3076" dy="839" grid="1" gridSize="10" guides="1" tooltips="1" connect="1" arrows="1" fold="1" page="1" pageScale="1" pageWidth="827" pageHeight="1169" math="0" shadow="0">
      <root>
        <mxCell id="0" />
        <mxCell id="1" parent="0" />
        <mxCell id="j8l-eJ1rH2gUDRsQvT4E-58" style="edgeStyle=orthogonalEdgeStyle;rounded=0;orthogonalLoop=1;jettySize=auto;html=1;entryX=0.5;entryY=0;entryDx=0;entryDy=0;" edge="1" parent="1" source="j8l-eJ1rH2gUDRsQvT4E-59" target="j8l-eJ1rH2gUDRsQvT4E-62">
          <mxGeometry relative="1" as="geometry" />
        </mxCell>
        <mxCell id="j8l-eJ1rH2gUDRsQvT4E-59" value="前端应用" style="rounded=0;whiteSpace=wrap;html=1;" vertex="1" parent="1">
          <mxGeometry x="-560" y="210" width="440" height="40" as="geometry" />
        </mxCell>
        <mxCell id="j8l-eJ1rH2gUDRsQvT4E-60" style="edgeStyle=orthogonalEdgeStyle;rounded=0;orthogonalLoop=1;jettySize=auto;html=1;entryX=0;entryY=0.5;entryDx=0;entryDy=0;exitX=0.5;exitY=1;exitDx=0;exitDy=0;" edge="1" parent="1" source="j8l-eJ1rH2gUDRsQvT4E-62" target="j8l-eJ1rH2gUDRsQvT4E-63">
          <mxGeometry relative="1" as="geometry" />
        </mxCell>
        <mxCell id="j8l-eJ1rH2gUDRsQvT4E-61" style="edgeStyle=orthogonalEdgeStyle;rounded=0;orthogonalLoop=1;jettySize=auto;html=1;entryX=0.5;entryY=0;entryDx=0;entryDy=0;" edge="1" parent="1" source="j8l-eJ1rH2gUDRsQvT4E-62" target="j8l-eJ1rH2gUDRsQvT4E-69">
          <mxGeometry relative="1" as="geometry" />
        </mxCell>
        <mxCell id="j8l-eJ1rH2gUDRsQvT4E-62" value="网关" style="rounded=1;whiteSpace=wrap;html=1;" vertex="1" parent="1">
          <mxGeometry x="-400" y="320" width="120" height="60" as="geometry" />
        </mxCell>
        <mxCell id="j8l-eJ1rH2gUDRsQvT4E-63" value="丰讯后端" style="rounded=0;whiteSpace=wrap;html=1;" vertex="1" parent="1">
          <mxGeometry x="-236" y="580" width="116" height="40" as="geometry" />
        </mxCell>
        <mxCell id="j8l-eJ1rH2gUDRsQvT4E-64" value="" style="endArrow=classic;html=1;rounded=0;exitX=0.873;exitY=1.05;exitDx=0;exitDy=0;exitPerimeter=0;" edge="1" parent="1" source="j8l-eJ1rH2gUDRsQvT4E-59" target="j8l-eJ1rH2gUDRsQvT4E-63">
          <mxGeometry width="50" height="50" relative="1" as="geometry">
            <mxPoint x="-150" y="380" as="sourcePoint" />
            <mxPoint x="-100" y="330" as="targetPoint" />
          </mxGeometry>
        </mxCell>
        <mxCell id="j8l-eJ1rH2gUDRsQvT4E-65" value="/manager/**" style="text;html=1;strokeColor=none;fillColor=none;align=center;verticalAlign=middle;whiteSpace=wrap;rounded=0;" vertex="1" parent="1">
          <mxGeometry x="-180" y="290" width="90" height="30" as="geometry" />
        </mxCell>
        <mxCell id="j8l-eJ1rH2gUDRsQvT4E-66" value="/api/hd-fx-cmcc/**" style="text;html=1;strokeColor=none;fillColor=none;align=center;verticalAlign=middle;whiteSpace=wrap;rounded=0;" vertex="1" parent="1">
          <mxGeometry x="-350" y="480" width="125" height="30" as="geometry" />
        </mxCell>
        <mxCell id="j8l-eJ1rH2gUDRsQvT4E-67" style="edgeStyle=orthogonalEdgeStyle;rounded=0;orthogonalLoop=1;jettySize=auto;html=1;entryX=0.5;entryY=0;entryDx=0;entryDy=0;" edge="1" parent="1" source="j8l-eJ1rH2gUDRsQvT4E-69" target="j8l-eJ1rH2gUDRsQvT4E-72">
          <mxGeometry relative="1" as="geometry" />
        </mxCell>
        <mxCell id="j8l-eJ1rH2gUDRsQvT4E-68" style="edgeStyle=orthogonalEdgeStyle;rounded=0;orthogonalLoop=1;jettySize=auto;html=1;entryX=1;entryY=0.5;entryDx=0;entryDy=0;" edge="1" parent="1" source="j8l-eJ1rH2gUDRsQvT4E-69" target="j8l-eJ1rH2gUDRsQvT4E-71">
          <mxGeometry relative="1" as="geometry" />
        </mxCell>
        <mxCell id="j8l-eJ1rH2gUDRsQvT4E-69" value="auth-core" style="rounded=0;whiteSpace=wrap;html=1;" vertex="1" parent="1">
          <mxGeometry x="-560" y="415" width="116" height="40" as="geometry" />
        </mxCell>
        <mxCell id="j8l-eJ1rH2gUDRsQvT4E-70" value="/zt/nuts-auth-core/**&lt;br&gt;/api/hd-fx-cmcc/**" style="text;html=1;strokeColor=none;fillColor=none;align=center;verticalAlign=middle;whiteSpace=wrap;rounded=0;" vertex="1" parent="1">
          <mxGeometry x="-580" y="310" width="145" height="30" as="geometry" />
        </mxCell>
        <mxCell id="j8l-eJ1rH2gUDRsQvT4E-71" value="CAS" style="rounded=0;whiteSpace=wrap;html=1;" vertex="1" parent="1">
          <mxGeometry x="-700" y="417.5" width="80" height="35" as="geometry" />
        </mxCell>
        <mxCell id="j8l-eJ1rH2gUDRsQvT4E-72" value="user-core" style="rounded=0;whiteSpace=wrap;html=1;" vertex="1" parent="1">
          <mxGeometry x="-560" y="540" width="116" height="40" as="geometry" />
        </mxCell>
        <mxCell id="j8l-eJ1rH2gUDRsQvT4E-73" value="Feign" style="text;html=1;strokeColor=none;fillColor=none;align=center;verticalAlign=middle;whiteSpace=wrap;rounded=0;" vertex="1" parent="1">
          <mxGeometry x="-550" y="485" width="40" height="30" as="geometry" />
        </mxCell>
        <mxCell id="j8l-eJ1rH2gUDRsQvT4E-74" style="edgeStyle=orthogonalEdgeStyle;rounded=0;orthogonalLoop=1;jettySize=auto;html=1;entryX=0.5;entryY=1;entryDx=0;entryDy=0;" edge="1" parent="1" source="j8l-eJ1rH2gUDRsQvT4E-75" target="j8l-eJ1rH2gUDRsQvT4E-72">
          <mxGeometry relative="1" as="geometry" />
        </mxCell>
        <mxCell id="j8l-eJ1rH2gUDRsQvT4E-75" value="DB" style="shape=cylinder3;whiteSpace=wrap;html=1;boundedLbl=1;backgroundOutline=1;size=15;" vertex="1" parent="1">
          <mxGeometry x="-532" y="640" width="60" height="60" as="geometry" />
        </mxCell>
        <mxCell id="j8l-eJ1rH2gUDRsQvT4E-76" value="获取数据" style="text;html=1;strokeColor=none;fillColor=none;align=center;verticalAlign=middle;whiteSpace=wrap;rounded=0;" vertex="1" parent="1">
          <mxGeometry x="-560" y="600" width="50" height="30" as="geometry" />
        </mxCell>
        <mxCell id="j8l-eJ1rH2gUDRsQvT4E-77" value="丰讯前端请求通过nginx进行转发&lt;br&gt;&lt;br&gt;/zt/nuts-auth-core/**&lt;br&gt;/api/hd-fx-cmcc/**&lt;br&gt;&amp;nbsp;路径的请求会转发到华东网关，进行登录鉴权&lt;br&gt;&lt;br&gt;/manager/** 路径直接转发到丰讯后端进行处理" style="text;html=1;strokeColor=none;fillColor=none;align=center;verticalAlign=middle;whiteSpace=wrap;rounded=0;" vertex="1" parent="1">
          <mxGeometry x="-950" y="210" width="220" height="160" as="geometry" />
        </mxCell>
      </root>
    </mxGraphModel>
  </diagram>
</mxfile>
